<svg xmlns="http://www.w3.org/2000/svg" xmlns:xlink="http://www.w3.org/1999/xlink" width="894.826" height="261.99" viewBox="0 0 894.826 261.99"><defs><linearGradient id="a" x1="0.5" y1="6.811" x2="0.5" y2="5.811" gradientUnits="objectBoundingBox"><stop offset="0" stop-color="#95722d"/><stop offset="0.28" stop-color="#a38440"/><stop offset="0.63" stop-color="#b19552"/><stop offset="0.89" stop-color="#b69b58"/></linearGradient><linearGradient id="b" x1="0.5" y1="6.901" x2="0.5" y2="5.901" gradientUnits="objectBoundingBox"><stop offset="0.16" stop-color="#c9b580"/><stop offset="0.46" stop-color="#d0be89"/><stop offset="0.83" stop-color="#d4c38e"/></linearGradient></defs><g transform="translate(-552 -588)"><path d="M41.79,99C34.24,112.94,5.16,217.41,1.63,234.61c0,0-9.83,27.38,18.76,27.38H703.28c53.49,0,141.83-46.59,164.26-144.38C798.61,136,614.14,160.8,453.86,160.47S120.05,131.74,41.79,99Z" transform="translate(552.002 588)" fill="url(#a)"/><path d="M879.1,0H199.7C116.21,0,59.19,63.73,41.8,99.05c118.33,48.6,303.18,61.44,429.13,61.44,0,0,258.61-2.5,396.62-42.86,0,0,26-94.27,27.1-100.48S891.77,0,879.1,0Z" transform="translate(552.002 588)" fill="url(#b)"/><path d="M485.92,104.72H447.41l3.04-10.77H489l-3.08,10.77" transform="translate(552.002 588)" fill="#6b5736"/><path d="M718.23,183.52h-37.9l17.35-64c1.3-3.85,3.77-6.41,9-6.41h57.84l-5,18H732.75L718.23,183.5" transform="translate(552.002 588)" fill="#6b5736"/><path d="M670.38,183.52H588c-6.41,0-8.44-4.29-7.62-7.1,4.75-16.66,13.3-48.41,15.73-56.67.77-3.51,5.14-6.45,9.09-6.45h75.62c5.23,0,7.22,5.08,6.33,9.5l-9.39,34.07H625l-2.63,9h52.94l-5,17.69M632,131l-2.88,10.45h14.5L646.26,131H632" transform="translate(552.002 588)" fill="#6b5736"/><path d="M760.15,108.78l-5,18H728.4l-14.52,52.39H676l17.35-64c1.3-3.85,3.77-6.41,9-6.41Z" transform="translate(552.002 588)" fill="#fff"/><path d="M676.4,108.91c5.23,0,7.22,5.08,6.33,9.5l-9.39,34.07H620.65l-2.62,9H671l-5,17.68H583.59c-6.41,0-8.44-4.29-7.62-7.1,4.75-16.66,13.3-48.41,15.73-56.67.79-3.61,5.37-6.61,9.41-6.45H676.4Zm-51.61,28.18h14.49l2.62-10.45H627.66l-2.87,10.45Z" transform="translate(552.002 588)" fill="#fff"/><path d="M135.92,181.28c-3.63-.35-5.84-5.16-4.81-9.38l19.3-70.71c2.17-4.83,7.72-7.08,13.51-7.08H261l-5.79,21.54H185.77L173.63,160h29.48L206,149.4H192.2l5.86-20.54h53.53l-12.42,45c-1,3.49-4.61,7.32-12.89,7.4l-90.36.06" transform="translate(552.002 588)" fill="#6b5736"/><path d="M286.68,181.22H248.77l17.35-64c1.29-3.85,3.79-6.41,9-6.41H333l-5,18H301.18l-14.5,52.39" transform="translate(552.002 588)" fill="#6b5736"/><path d="M464.77,181.14H426.19l19.3-70.33h38.56l-19.28,70.33" transform="translate(552.002 588)" fill="#6b5736"/><path d="M567.43,181.3H528.85l14.6-52.47H528.92l-14.45,52.31H476.54l17.68-63.89c1.28-4,4.71-6.25,9.53-6.25h74.92c5.83,0,6.62,5.65,5,10.75L567.43,181.3" transform="translate(552.002 588)" fill="#6b5736"/><path d="M414.58,181.22H332.19c-6.44,0-8.45-4.29-7.65-7.1,4.75-16.66,13.32-48.41,15.72-56.67.81-3.51,5.13-6.45,9.12-6.45H425c5.21,0,7.21,5.08,6.34,9.5l-9.39,34.07H369.27l-2.67,9h52.93l-4.95,17.69M376.26,128.7l-2.86,10.45h14.48l2.62-10.45H376.26" transform="translate(552.002 588)" fill="#6b5736"/><path d="M481.56,100.36H443.05l3.04-10.77h38.55Z" transform="translate(552.002 588)" fill="#fff"/><path d="M250.84,111.29H181.41l-12.14,44.35h29.48l2.93-10.6H187.84l5.86-20.54h53.53l-12.42,45c-1,3.48-4.61,7.32-12.89,7.4l-90.35.06c-3.63-.34-5.84-5.16-4.81-9.38l19.3-70.71c2.17-4.83,7.72-7.08,13.51-7.08h97.07l-5.8,21.54Z" transform="translate(552.002 588)" fill="#fff"/><path d="M328.61,106.48l-5,18H296.84l-14.52,52.39h-37.9l17.35-64c1.29-3.85,3.79-6.41,9-6.41Z" transform="translate(552.002 588)" fill="#fff"/><path d="M460.41,176.78H421.83l19.3-70.33H479.7Z" transform="translate(552.002 588)" fill="#fff"/><path d="M574.32,106.64c5.83,0,6.62,5.65,5,10.75l-16.27,59.55H524.5l14.6-52.47H524.57l-14.45,52.31H472.19l17.68-63.89c1.28-4,4.71-6.25,9.53-6.25Z" transform="translate(552.002 588)" fill="#fff"/><path d="M420.63,106.61c5.22,0,7.21,5.08,6.34,9.5l-9.39,34.07H364.91l-2.67,9h52.93l-5,17.68h-82.4c-6.44,0-8.45-4.29-7.65-7.1,4.75-16.66,13.32-48.41,15.72-56.67.83-3.61,5.37-6.61,9.45-6.45h75.29ZM369,134.79h14.48l2.62-10.45H371.9Z" transform="translate(552.002 588)" fill="#fff"/></g></svg>